<?xml version="1.0" standalone="no"?><!DOCTYPE svg PUBLIC "-//W3C//DTD SVG 1.1//EN" "http://www.w3.org/Graphics/SVG/1.1/DTD/svg11.dtd"><svg class="icon" viewBox="0 0 4465 1024" version="1.1" xmlns="http://www.w3.org/2000/svg" xmlns:xlink="http://www.w3.org/1999/xlink" width="872.0703125" height="200"><defs><style type="text/css"></style></defs><path d="M3338.029161 653.643327l-1.292898 2.115652a234.36725 234.36725 0 0 1-79.807103 76.16348 214.033482 214.033482 0 0 1-109.308698 31.617247 218.14725 218.14725 0 0 1-165.373481-75.458263 254.936091 254.936091 0 0 1-66.1729-180.300582 251.292468 251.292468 0 0 1 68.288552-171.015221 211.565221 211.565221 0 0 1 158.908989-71.579566c83.568262-0.822754 146.68522 33.732899 192.759423 105.78261l1.292899 2.115652h0.705217l54.419276-33.615362a303.125947 303.125947 0 0 0-89.680146-95.792031 280.676527 280.676527 0 0 0-155.500438-47.014494 272.919135 272.919135 0 0 0-207.804061 88.504785c-57.827827 59.473334-87.094349 135.401741-87.094349 225.669569A326.633194 326.633194 0 0 0 2938.405966 737.211589a271.626237 271.626237 0 0 0 205.688409 93.206234h2.938406a284.32015 284.32015 0 0 0 245.063048-143.159133zM3743.646704 204.537377h-73.812754l-274.32957 614.126822h87.564494l84.743624-204.160438h0.117537l29.971739-63.704639h-0.117536l110.48406-259.284932 108.250871 259.284932h-155.382901l-28.326232 63.704639h208.861888l85.566378 204.160438h77.221306L3743.646704 204.537377zM4405.845846 260.719697a220.02783 220.02783 0 0 0-152.797104-55.477103H4055.000188v613.421605h72.40232V271.415494h129.289858a144.216959 144.216959 0 0 1 94.028987 32.792609 105.782611 105.782611 0 0 1 42.900725 81.217538 108.015799 108.015799 0 0 1-38.551885 94.028987 135.989423 135.989423 0 0 1-94.85174 35.26087h-74.988118v64.527393h86.741741A194.052322 194.052322 0 0 0 4407.60889 526.939267 169.017104 169.017104 0 0 0 4465.554253 399.647525a173.365945 173.365945 0 0 0-59.708407-138.927828zM1709.212031 216.643609h72.40232v72.40232h-72.40232zM1709.212031 378.843612h72.40232v440.760877h-72.40232zM2799.71321 775.763474V586.177529a224.611743 224.611743 0 0 0-71.344494-169.839858 229.665801 229.665801 0 0 0-332.745078 3.173478 233.779569 233.779569 0 0 0-65.702755 165.843626 237.893337 237.893337 0 0 0 71.344494 172.190583 221.320728 221.320728 0 0 0 169.957394 68.171015 225.669569 225.669569 0 0 0 159.966814-71.697102v29.971739m0 0a137.63493 137.63493 0 0 1-47.014493 104.137104 157.61609 157.61609 0 0 1-110.48406 45.016377 161.847394 161.847394 0 0 1-98.495364-32.910145 151.151597 151.151597 0 0 1-52.186088-61.353914l-55.477102 32.087391a212.623047 212.623047 0 0 0 57.945363 70.521741 237.775801 237.775801 0 0 0 141.043481 49.717827h10.343188a238.010874 238.010874 0 0 0 151.504206-53.831595 178.184931 178.184931 0 0 0 71.697102-144.334496V775.763474m-70.52174-184.76696a170.545075 170.545075 0 0 1-49.012609 117.536234 149.50609 149.50609 0 0 1-113.422466 48.660001 158.791452 158.791452 0 0 1-117.536234-48.777537 164.550728 164.550728 0 0 1-50.423044-118.358988A166.431307 166.431307 0 0 1 2444.753783 470.169266a158.321307 158.321307 0 0 1 113.657538-54.889422h8.697682a148.448263 148.448263 0 0 1 113.187393 50.540581 165.961162 165.961162 0 0 1 49.365218 124.941017zM1580.392319 260.719697a220.145366 220.145366 0 0 0-152.797104-55.477103h-198.401163v613.421605h72.40232V271.415494h129.289857a143.86435 143.86435 0 0 1 94.028988 32.792609 105.782611 105.782611 0 0 1 42.900725 81.217538 107.898263 107.898263 0 0 1-38.434349 94.028987 136.342031 136.342031 0 0 1-94.969277 35.26087h-74.988117v64.527393h86.741741a194.052322 194.052322 0 0 0 135.166669-51.480871 168.194351 168.194351 0 0 0 58.650581-128.114495 173.718554 173.718554 0 0 0-59.590871-138.927828zM2065.934501 351.810278a195.932902 195.932902 0 0 0-145.157249 58.768117 203.102612 203.102612 0 0 0-57.71029 147.390437v258.579715h69.816523V552.444629a126.939133 126.939133 0 0 1 39.374638-94.028987 128.349567 128.349567 0 0 1 94.028987-39.257102 124.941017 124.941017 0 0 1 91.678262 39.257102 126.939133 126.939133 0 0 1 39.96232 94.028987v265.27928h70.52174v-258.579714A203.220148 203.220148 0 0 0 2209.681315 411.401149a194.640003 194.640003 0 0 0-143.746814-59.590871zM818.757523 211.589551a51.48087 51.48087 0 0 0-37.611595-49.130146L213.445918 2.022446a52.186088 52.186088 0 0 0-45.604058 8.345073 50.775653 50.775653 0 0 0-20.686378 40.902609v83.098117L66.173017 111.44868a52.303624 52.303624 0 0 0-45.486522 8.462609A50.540581 50.540581 0 0 0 0.000118 160.813898v811.940304a50.658117 50.658117 0 0 0 19.746087 40.197392 52.068552 52.068552 0 0 0 32.087392 11.048406 53.243914 53.243914 0 0 0 11.753623-1.410435l446.637689-104.959857a51.245798 51.245798 0 0 0 39.844783-49.952899V636.718109l229.783338-54.536812a51.48087 51.48087 0 0 0 39.844783-49.9529z m-775.739144-41.255218a16.455073 16.455073 0 0 1 6.582029-13.046522 17.277826 17.277826 0 0 1 9.99058-3.291015 15.514783 15.514783 0 0 1 4.583913 0.705218l83.098118 23.507247v489.185805a51.598407 51.598407 0 0 0 51.833479 51.245798A52.656233 52.656233 0 0 0 211.565339 716.995357l295.603628-70.52174v211.565221a21.391595 21.391595 0 0 1-16.572609 20.803913L63.352148 979.218695a16.337537 16.337537 0 0 1-14.104348-3.055942A16.102464 16.102464 0 0 1 42.900843 963.821448zM196.638237 671.156226a16.807681 16.807681 0 0 1-6.346957-12.928986l-0.587681-468.029284 301.48044 84.861161a21.509131 21.509131 0 0 1 15.632319 20.568841v307.944933l-296.073773 70.521741a16.807681 16.807681 0 0 1-14.104348-2.938406z m315.584788-434.061312l-322.519426-90.855509V61.260708a15.984928 15.984928 0 0 1 6.582029-13.046522 16.337537 16.337537 0 0 1 14.456957-2.703333l549.246821 155.265365A21.626667 21.626667 0 0 1 775.739261 221.227522v301.362904a21.038986 21.038986 0 0 1-16.455072 20.686377l-209.449569 50.070436V286.460132a51.598407 51.598407 0 0 0-37.611595-49.365218z"></path></svg>
