<svg xmlns="http://www.w3.org/2000/svg" viewBox="0 0 286.3 286.3"><defs><style>.cls-1{fill:#fff;}.cls-2{fill:none;}.cls-3{fill:#172d72;}.cls-4{fill:#00aeef;}.cls-5{fill:#3d3fea;}</style></defs><g id="图层_2"><g id="Layer_1"><circle class="cls-1" cx="143.15" cy="143.15" r="143.15"/><rect class="cls-2" x="64.65" y="50.65" width="185" height="185"/><path class="cls-3" d="M175.65,93.78,94.34,70.91a8.83,8.83,0,0,0-7.7,1.42,8.52,8.52,0,0,0-3.49,6.9V227a8.59,8.59,0,0,0,3.34,6.8,8.81,8.81,0,0,0,5.42,1.86,9,9,0,0,0,2-.24l81.31-19.1h0a8.66,8.66,0,0,0,6.74-8.42V102.1A8.71,8.71,0,0,0,175.65,93.78Z"/><path class="cls-4" d="M231,88.52a8.73,8.73,0,0,0-6.37-8.3L121.18,51a8.82,8.82,0,0,0-7.7,1.41A8.54,8.54,0,0,0,110,59.31V171.43a8.54,8.54,0,0,0,3.34,6.8,8.81,8.81,0,0,0,5.42,1.86,8.68,8.68,0,0,0,2.07-.25l103.61-24.58a8.66,8.66,0,0,0,6.72-8.44Z"/><path class="cls-5" d="M175.65,93.78,110,75.31v96.12a8.54,8.54,0,0,0,3.34,6.8,8.81,8.81,0,0,0,5.42,1.86,8.68,8.68,0,0,0,2.07-.25L182,165.32V102.1A8.71,8.71,0,0,0,175.65,93.78Z"/></g></g></svg>
